<svg xmlns="http://www.w3.org/2000/svg" viewBox="0 0 64 64" width="64" height="64">
  <!-- Card background -->
  <rect x="4" y="8" width="56" height="48" rx="4" fill="#1a1a2e" stroke="#4a4a6a" stroke-width="2"/>
  
  <!-- Grid lines -->
  <line x1="12" y1="20" x2="52" y2="20" stroke="#3a3a5a" stroke-width="1"/>
  <line x1="12" y1="32" x2="52" y2="32" stroke="#3a3a5a" stroke-width="1"/>
  <line x1="12" y1="44" x2="52" y2="44" stroke="#3a3a5a" stroke-width="1"/>
  
  <!-- Area chart gradient -->
  <defs>
    <linearGradient id="areaGradient" x1="0%" y1="0%" x2="0%" y2="100%">
      <stop offset="0%" style="stop-color:#6366f1;stop-opacity:0.5"/>
      <stop offset="100%" style="stop-color:#6366f1;stop-opacity:0.05"/>
    </linearGradient>
  </defs>
  
  <!-- Area fill -->
  <path d="M12 44 L18 38 L26 42 L34 28 L42 32 L52 22 L52 44 Z" fill="url(#areaGradient)"/>
  
  <!-- Line stroke -->
  <path d="M12 44 L18 38 L26 42 L34 28 L42 32 L52 22" fill="none" stroke="#6366f1" stroke-width="2" stroke-linecap="round" stroke-linejoin="round"/>
  
  <!-- Data points -->
  <circle cx="12" cy="44" r="2" fill="#6366f1"/>
  <circle cx="18" cy="38" r="2" fill="#6366f1"/>
  <circle cx="26" cy="42" r="2" fill="#6366f1"/>
  <circle cx="34" cy="28" r="2" fill="#6366f1"/>
  <circle cx="42" cy="32" r="2" fill="#6366f1"/>
  <circle cx="52" cy="22" r="2" fill="#6366f1"/>
</svg>
